<svg width="27" height="27" viewBox="0 0 27 27" fill="none" xmlns="http://www.w3.org/2000/svg">
<g opacity="0.5">
<path d="M18.9051 9.30988C19.5761 9.30988 20.1201 8.76591 20.1201 8.09488C20.1201 7.42386 19.5761 6.87988 18.9051 6.87988C18.234 6.87988 17.6901 7.42386 17.6901 8.09488C17.6901 8.76591 18.234 9.30988 18.9051 9.30988Z" fill="white"/>
<path d="M13.5 8.30078C12.4717 8.30078 11.4665 8.60571 10.6115 9.177C9.75646 9.7483 9.09006 10.5603 8.69655 11.5103C8.30303 12.4604 8.20007 13.5057 8.40068 14.5143C8.6013 15.5228 9.09647 16.4492 9.82359 17.1763C10.5507 17.9035 11.4771 18.3986 12.4857 18.5993C13.4942 18.7999 14.5396 18.6969 15.4896 18.3034C16.4396 17.9099 17.2516 17.2435 17.8229 16.3885C18.3942 15.5335 18.6992 14.5283 18.6992 13.5C18.6992 12.1211 18.1514 10.7986 17.1764 9.82359C16.2013 8.84855 14.8789 8.30078 13.5 8.30078ZM13.5 16.875C12.8325 16.875 12.1799 16.677 11.6249 16.3062C11.0699 15.9353 10.6373 15.4082 10.3819 14.7915C10.1264 14.1748 10.0596 13.4962 10.1898 12.8415C10.32 12.1869 10.6415 11.5855 11.1135 11.1135C11.5855 10.6415 12.1869 10.32 12.8415 10.1898C13.4962 10.0596 14.1748 10.1264 14.7915 10.3819C15.4082 10.6373 15.9353 11.0699 16.3062 11.6249C16.677 12.1799 16.875 12.8325 16.875 13.5C16.875 14.3951 16.5194 15.2535 15.8865 15.8865C15.2535 16.5194 14.3951 16.875 13.5 16.875Z" fill="white"/>
<path d="M13.5 5.19919C16.2034 5.19919 16.524 5.20931 17.5913 5.25825C18.2333 5.26587 18.8692 5.38374 19.4712 5.60672C19.908 5.77521 20.3047 6.03327 20.6357 6.3643C20.9667 6.69534 21.2248 7.092 21.3933 7.52878C21.6163 8.13082 21.7341 8.7667 21.7417 9.40866C21.7907 10.476 21.8008 10.7966 21.8008 13.5008C21.8008 16.2051 21.7907 16.524 21.7417 17.5913C21.7341 18.2333 21.6163 18.8692 21.3933 19.4712C21.2248 19.908 20.9667 20.3047 20.6357 20.6357C20.3047 20.9667 19.908 21.2248 19.4712 21.3933C18.8692 21.6163 18.2333 21.7341 17.5913 21.7417C16.524 21.7907 16.2034 21.8008 13.5 21.8008C10.7966 21.8008 10.476 21.7907 9.40866 21.7417C8.7667 21.7341 8.13082 21.6163 7.52878 21.3933C7.092 21.2248 6.69534 20.9667 6.3643 20.6357C6.03327 20.3047 5.77521 19.908 5.60672 19.4712C5.38374 18.8692 5.26587 18.2333 5.25825 17.5913C5.20931 16.524 5.19919 16.2034 5.19919 13.5C5.19919 10.7966 5.20931 10.476 5.25825 9.40866C5.26587 8.7667 5.38374 8.13082 5.60672 7.52878C5.77521 7.092 6.03327 6.69534 6.3643 6.3643C6.69534 6.03327 7.092 5.77521 7.52878 5.60672C8.13082 5.38374 8.7667 5.26587 9.40866 5.25825C10.476 5.20931 10.7966 5.19919 13.5 5.19919ZM13.5 3.375C10.7502 3.375 10.4051 3.38681 9.32513 3.43575C8.4854 3.45271 7.65463 3.6119 6.86813 3.90656C6.19542 4.16669 5.58449 4.5645 5.0745 5.0745C4.5645 5.58449 4.16669 6.19542 3.90656 6.86813C3.61181 7.6549 3.45261 8.48596 3.43575 9.32597C3.38681 10.406 3.375 10.7494 3.375 13.5C3.375 16.2506 3.38681 16.5949 3.43575 17.6749C3.45271 18.5146 3.6119 19.3454 3.90656 20.1319C4.16669 20.8046 4.5645 21.4155 5.0745 21.9255C5.58449 22.4355 6.19542 22.8333 6.86813 23.0934C7.6549 23.3882 8.48596 23.5474 9.32597 23.5642C10.406 23.6132 10.7502 23.625 13.5 23.625C16.2498 23.625 16.5949 23.6132 17.6749 23.5642C18.5149 23.5474 19.3459 23.3882 20.1327 23.0934C20.8054 22.8333 21.4164 22.4355 21.9263 21.9255C22.4363 21.4155 22.8342 20.8046 23.0943 20.1319C23.3888 19.3451 23.5477 18.514 23.5642 17.674C23.6132 16.594 23.625 16.2506 23.625 13.5C23.625 10.7494 23.6132 10.4051 23.5642 9.32513C23.5473 8.4854 23.3881 7.65463 23.0934 6.86813C22.8333 6.19542 22.4355 5.58449 21.9255 5.0745C21.4155 4.5645 20.8046 4.16669 20.1319 3.90656C19.3451 3.61209 18.514 3.45318 17.674 3.43659C16.594 3.38597 16.2506 3.375 13.5 3.375Z" fill="white"/>
</g>
</svg>
