<svg width="15" height="14" viewBox="0 0 15 14" fill="none" xmlns="http://www.w3.org/2000/svg">
<path opacity="0.8" d="M12.6381 9.54705L10.6571 9.32103C10.4241 9.2937 10.188 9.31947 9.96645 9.39641C9.74491 9.47335 9.54369 9.59946 9.37793 9.76526L7.94281 11.1993C5.72867 10.0741 3.92899 8.27578 2.80291 6.06335L4.24582 4.62155C4.5812 4.28643 4.74499 3.81882 4.6904 3.34342L4.46421 1.37945C4.41999 0.999266 4.23739 0.648605 3.95118 0.394233C3.66497 0.139862 3.29514 -0.000453781 2.9121 1.10254e-06H1.56278C0.681427 1.10254e-06 -0.0517317 0.732591 0.00286515 1.61326C0.416242 8.26891 5.74334 13.5841 12.3964 13.9971C13.2777 14.0517 14.0109 13.3191 14.0109 12.4384V11.0902C14.0187 10.303 13.4259 9.64057 12.6381 9.54705V9.54705Z" fill="#919196"/>
</svg>
